<svg width="36" height="36" viewBox="0 0 36 36" fill="none" xmlns="http://www.w3.org/2000/svg">
<path fill-rule="evenodd" clip-rule="evenodd" d="M6.80807 33.1662H4.5147C2.0213 33.1662 0 31.1514 0 28.6662V15.0345C0 12.5492 2.0213 10.5345 4.5147 10.5345H8.48541C9.39294 9.72747 10.7757 8.0597 11.2935 4.79127L11.5679 2.7575C11.6787 2.15946 11.9228 1.16045 12.8251 0.557272C13.7466 -0.0587087 14.8441 -0.0953749 15.7365 0.118158C16.6409 0.334582 17.5398 0.850092 18.1691 1.63344C19.1059 2.79962 19.4268 4.32534 19.5054 5.68802C19.5859 7.08447 19.4234 8.52827 19.2016 9.72849C19.195 9.76466 19.2306 9.91331 19.278 9.91919H30.6199C35.8194 9.91982 37.7496 16.4405 34.1716 19.3927C34.5363 21.2996 33.7938 23.2611 32.3233 24.4952C32.6931 26.4052 31.951 28.3715 30.4783 29.6081C31.1049 32.8281 28.4583 35.9961 25.0847 35.9997L16.5552 35.9998L16.4767 35.9998C15.0911 36.0012 13.8061 36.0024 12.4885 35.695C11.1536 35.3835 9.8654 34.7798 8.32629 33.7126L6.80807 33.1662ZM3.0098 15.0345C3.0098 14.2061 3.68356 13.5345 4.5147 13.5345H7.52174V30.1662H4.5147C3.68356 30.1662 3.0098 29.4946 3.0098 28.6662V15.0345ZM26.7483 18.7576C26.7483 17.9292 27.4221 17.2576 28.2532 17.2576L32.0007 17.2576C33.7752 16.0966 33.0377 12.9197 30.6198 12.9192L19.278 12.9192C17.2232 12.9192 15.9082 10.9892 16.2416 9.18504C16.4376 8.12476 16.5626 6.93617 16.5005 5.86011C16.4366 4.75027 16.185 3.96335 15.8196 3.50853C15.6508 3.29834 15.3583 3.11293 15.0339 3.0353C14.8254 2.98542 14.6813 2.99564 14.5954 3.01491L14.2664 5.25915C13.6283 9.28777 11.8607 11.5371 10.5315 12.7346V31.5754C11.6031 32.2649 12.4163 32.597 13.1745 32.7739C14.1169 32.9938 15.0656 33.001 16.5526 32.9997H25.0814C26.5322 32.9975 27.578 31.7347 27.5448 30.4854L24.3094 30.4854C23.4783 30.4854 22.8045 29.8138 22.8045 28.9854C22.8045 28.157 23.4783 27.4854 24.3094 27.4854L28.3081 27.4854C29.0364 27.0139 29.4404 26.1875 29.4015 25.3711L26.5863 25.3711C25.7552 25.3711 25.0814 24.6995 25.0814 23.8711C25.0814 23.0427 25.7552 22.3711 26.5863 22.3711L30.155 22.3711C30.8827 21.8995 31.2864 21.0736 31.2476 20.2576L28.2532 20.2576C27.4221 20.2576 26.7483 19.5861 26.7483 18.7576Z" fill="#6D778B"/>
</svg>
